<?xml version="1.0" encoding="UTF-8"?>
<svg version="1.1" xmlns="http://www.w3.org/2000/svg" width="1254" height="1254" transform="scale(-1, 1)">
  <defs>
    <mask id="eye-tooth">
      <g fill="#000" transform="translate(-476.7578125,-235.67578125)">
        <rect width="1254" height="1254" fill="#FFF" />

        <!--目-->
        <circle cx="288.16821" cy="366.68472" r="20.162354" />

        <!--前歯-->                
        <path d="
          m 148,455
          c 7.52722,2.91254 14.13903,7.98478 22.07517,9.8604
          c 3.84316,1.18702 10.59258,0.71296 9.37384,6.73883
          c 2.12142,19.44682 7.2311,38.41361 11.31592,57.47478
          c -1.17858,5.55638 -9.62098,2.47845 -13.918,2.64535
          C 160.73727,531.79815 147.73503,458.48673 148,455 Z"/>
        
        
        <path d="
          m 215,465
          c 1.63513,58.93701 2.65903,53.9454 2.43273,59.71556
          c -1.30637,9.43548 -18.03376,7.26132 -19.61085,7.03492
          c -3.00418,-1.00808 -3.01694,-4.53731 -3.71395,-7.09729
          C 184.63437,485.3199 183.55194,478.63339 184,468
          c 10.42342,-0.0136 20.59615,-2.85236 31,-3 z"/>
      </g>
    </mask>
    
    <mask id="tail">
      <rect width="1254" height="1254" fill="#FFF" />

      <g fill="#000">
        <path d="
          m 974.6801,886.01627 c 10.008,8.75221 10.72771,25.31785 -6.5585,9.55331 c -3.45897,-2.75994 -17.57375,-24.29213 -22.72237,-20.46933
          l -8.46598,-7.57199 c 2.38114,-4.08782 -1.98003,-7.63248 -10.2944,-17.41982 c -4.08349,-4.80691 -14.14213,-18.25219 -20.61658,-15.46796
          l -7.49091,-7.40252 c 4.16294,-4.39575 -7.77294,-13.71941 -19.99787,-26.20714 c -7.68458,-7.84978 -19.23159,-16.20096 -19.23159,-16.20096 c -3.46987,-2.51756 -2.05928,-5.79268 -1.55834,-8.29649 c 0.68779,-3.43773 1.33775,-4.43139 5.0789,-2.94714 c 10.13038,3.32854 16.76634,-3.75835 27.42639,-12.84794 c 10.84566,-9.24785 22.18644,-16.2159 18.78019,-20.1534
          l 9.19082,-7.2264 c 5.27015,1.85615 8.88008,-2.501 19.79902,-10.90491 c 9.79275,-7.53712 29.3007,-22.60533 23.9753,-25.27908
          l 9.37453,-7.02081 c 11.375,4.44531 20.58796,-13.24751 35.38309,-19.03165 c 6.8444,-3.09188 8.1687,-0.0779 7.9954,3.04989 c -8.1797,15.99221 -29.78781,17.48105 -27.41013,28.59149
          l -7.72047,8.17757 c -6.79485,-4.76192 -14.04458,0.40039 -31.03538,16.02038 c -6.14503,5.64926 -20.47277,15.50489 -17.09777,18.25488
          l -8.93256,7.90808 c -3.28125,-2.125 -11.52242,4.12147 -23.15775,13.43503 c -8.09524,6.47988 -19.56301,13.01176 -19.81951,19.82319 c -0.0896,2.37919 1.63885,4.18948 8.44299,9.29287 c 7.79205,5.84436 17.74781,26.35844 28.81031,17.54594
          l 5.37902,8.34447 c -5.37072,5.78449 -0.5219,10.03029 3.33496,12.18038 c 16.61986,18.01167 22.19806,25.83886 28.04415,21.92442
          l 7.43609,6.80985 c -5.84375,7.5625 0.5572,10.75233 13.65895,23.53579 z"/>

        <path d="
          m 1008.3226,890.22032 c -2.7394,1.07836 -6.6887,2.65843 -10.04763,2.90237 c -0.0775,-0.86092 -1.53401,-5.23729 2.82033,-10.30575 c 7.029,-8.46339 33.9672,-15.19194 27.4672,-26.75444
          l 9.3442,-6.79327 c 8.0313,6.6875 14.5737,-6.24074 28.3459,-14.98522 c 18.3972,-16.30698 19.9203,-15.11632 15.601,-22.03466
          l 7.3652,-7.7181 c 11.7132,9.16023 24.9139,-15.89248 34.3281,-22.78125 c 7.4758,-6.07935 13.1886,2.53706 8.1747,9.15468 c -12.2368,15.14106 -31.1596,20.70332 -25.5653,31.40782
          l -10.3282,6.99219 c -4.3515,-4.23438 -13.7907,5.29503 -22.8985,11.90177 c -12.8366,10.64963 -22.3749,18.69198 -20.4296,23.66854
          l -9.8594,6.57812 c -6.9375,-4.31249 -21.193,13.11095 -34.318,18.7672 z"/>

        <path d="
          m 841.91734,855.7635 c 4.94507,7.85581 7.87585,11.19471 4.62577,15.60553
          l 5.82828,8.12519 c 8.58988,-4.73984 8.3125,-1.74997 19.78125,9.86933 c 6.62605,6.71304 14.29598,12.67787 9.0604,17.8099
          l 7.29536,6.91528 c 4.88371,-1.65083 9.05503,-0.73142 13.20864,5.48977 c 1.23229,0.69221 8.07555,2.55072 7.22239,-3.25007 c -1.75332,-5.69313 -7.65298,-10.43568 -4.58277,-12.2093
          l -5.662,-9.21102 c -9.90294,2.69453 -11.71354,-5.35358 -15.33587,-9.19244 c -8.54366,-9.05438 -18.60574,-14.91762 -13.35574,-21.60512
          l -7.87005,-6.70951 c -4.60591,3.07765 -8.08458,-2.14969 -12.89808,-6.00206 c -5.23226,-4.42818 -8.19081,1.50882 -7.31758,4.36452 z"/>

        <path d="
          m 900.75077,732.08606 c -0.21986,-11.15256 7.1268,-5.69762 10.7467,-3.25755 c 14,9.53125 18.14545,14.7778 26.9267,22.12155 c 24.83332,22.15204 24.38105,24.06421 28.61466,20.69593
          l 7.82928,7.81763 c -3.7804,4.39464 -1.65088,4.67013 12.2714,18.94106 c 16.63129,14.8997 14.75139,18.17035 21.61869,13.00062
          l 6.7652,8.44626 c -2.8515,2.75 -4.5156,2.14844 12.2266,20.89844 c 30.0644,24.98432 20.3653,18.94918 28.6931,30.83838 c -1.8384,4.44991 -3.9721,6.99931 -10.5681,2.00537 c -9.6562,-5.1875 -0.7058,-1.04099 -31.4489,-32.35133 c -9.4354,-9.23658 -10.6754,-11.12739 -17.54763,-7.19411
          l -7.00975,-6.3412 C 1000.771,818.50484 981.16262,809.9184 975.5,801.34375 C 961.53126,786.76563 962.00703,790.01824 956.16291,794.11742
          l -6.98322,-8.21898 c 2.22656,-2.25 9.87533,-7.36365 -27.18955,-33.02657 c -11.60488,-11.75472 -21.50806,-19.15626 -21.23937,-20.78581 z"/>

        <path d="
          m 958.61823,692.41715 c -1.25,-3.84374 0.20287,-7.9009 7.43725,-6.11184 c 13.656,9.74482 17.88714,13.38867 38.07782,30.66819 c 8.1835,8.02633 8.1923,14.52235 20.47,8.27725
          l 7.2067,6.99183 c -7.5386,9.1645 1.9306,11.07357 10.7076,22.43391 c 16.0781,16.1875 15.5133,15.9324 20.4326,11.72818
          l 7.8611,6.26454 c -7.1374,6.60703 -1.2934,13.65427 12.9371,26.16122 c 12.5926,12.45374 15.779,15.29389 23.8767,25.20346 c 9.4448,13.44288 -4.5963,11.87202 -11.8117,5.2648 c -6.1737,-8.3055 -11.1291,-12.52887 -21.9416,-27.18512 c -16.9685,-15.56808 -16.2635,-17.51194 -20.8376,-13.71124
          l -8.4301,-6.99373 c 5.7674,-6.29767 -6.4962,-17.57947 -15.5118,-25.97637 c -13.8906,-8.99968 -10.2861,-11.52434 -18.6209,-5.6613
          l -7.1532,-7.39429 c 6.1562,-5.8125 1.1962,-12.85681 -23.67886,-31.45653 c -2.90586,-12.39077 -18.0526,-8.86981 -21.02111,-18.50296 z"/>

        <path d="
          m 1044.7187,676.5625 c -8.0628,-7.0521 -7.7775,-10.38919 -2.6015,-14 c 5.1598,0.53328 7.8634,2.80141 18.0282,13.08686 c 5.9001,9.91983 10.8317,7.97554 16.6046,4.47564
          l 7.5313,6.59375 c -6.9326,6.07176 -2.0767,10.58052 9.4419,21.25536 c 9.3913,8.68415 9.7168,18.47777 20.2813,11.48318
          l 7.5285,8.29309 c -9.1261,10.00998 5.6891,13.26238 16.4283,29.0397 c 2.747,4.36612 2.9466,8.30267 2.0395,12.21171 c -4.3825,-0.30222 -8.6204,-2.6955 -11.76,-5.80869 c -16.9062,-16.76563 -16.9087,-27.54466 -26.9087,-17.46654
          l -7.5743,-7.48047 c 8.1484,-9.66796 1.5234,-14.08984 -9.6953,-26.27734 c -13.8134,-10.87056 -13.9075,-13.15059 -19.8186,-7.57205
          l -8.1342,-6.62786 c 6.9918,-10.78821 -0.5192,-11.57201 -11.391,-21.20634 z"/>

        <path d="
          m 834.35937,880.89063
          c -3.81249,3.64062 -9.14756,8.64203 -0.99131,12.54828
          c 2.43792,-0.12298 6.62361,-3.36395 18.96719,-13.95077
          c 20.43469,-17.98459 20.02914,-16.954 53.72226,-44.86812
          c 56.41435,-45.39638 67.24297,-53.42481 104.47469,-84.75824
          c 21.5696,-16.75079 66.1762,-56.25819 73.7455,-63.16485
          c 1.5954,-1.06184 5.0845,-2.69483 6.5538,-4.11677
          c 8.2239,-8.80759 6.7765,-19.0995 -3.3487,-13.06326
          c -11.9375,11.9375 -17.8497,17.39729 -49.6923,43.52862
          c -13.3378,13.66037 -56.21542,47.52856 -70.82724,58.69496
          c -15.10128,11.32133 -45.37767,37.35883 -51.79757,42.69269
          c -9.49887,5.88726 -44.61141,36.02239 -53.19964,43.11268
          c -15.35922,15.1956 -16.95052,13.53793 -27.60668,23.34478 z"/>

        <path d="
          m 874.94863,910.06308
          c -14.39395,6.17076 -4.89153,20.78465 8.79142,6.73319
          c 1.4932,-1.27627 4.28933,-1.68566 20.61274,-12.6689
          c 51.92887,-36.54866 54.20186,-40.53252 82.55984,-61.16581
          c 6.10798,-7.00829 47.34467,-38.47535 66.11067,-54.56661
          c 21.8306,-18.63109 42.8965,-37.06573 48.2954,-42.70436
          c 19.1714,-16.33588 27.1713,-24.32801 29.7881,-28.01891
          c 3.4276,-4.17436 6.2321,-9.39754 1.5211,-12.87368
          c -3.6475,0.0625 -6.4626,2.95948 -38.8746,33.45623
          c -9.595,9.94054 -34.7348,31.78032 -49.1077,43.16202
          c -18.2969,15.78166 -47.63136,42.53777 -57.80746,48.11906
          c -28.5511,23.20629 -38.64528,30.02939 -49.817,38.02875
          c -10.8729,7.76626 -20.73967,16.11094 -38.3367,27.32871
          c -10.30499,8.47774 -20.15478,14.30862 -23.73581,15.17031 z"/>
      </g>
    </mask>
  </defs>

  <g fill="#333" fill-opacity="0.4">
    <!--鼻-->
    <path d="
      m 149,377
      c 0.21986,9.67291 12.81587,13.47849 12.44273,23.37523
      c 0.0643,11.81051 -8.25581,21.51498 -16.18532,29.38027
      c -4.28586,4.89131 -12.21178,8.65893 -17.47931,2.87104
      c -6.78475,-7.46545 -13.60763,-16.65124 -13.40919,-27.24771
      c -0.26019,-8.14696 6.6836,-13.58429 13.18814,-17.06679
      C 134.55829,384.39394 141.36715,379.42714 149,377 Z "/>

    <!--尻尾-->
    <path mask="url(#tail)" d="
      m 1139,662
      c 44.4736,35.01114 45.3271,102.19003 19.7747,148.818
      c -33.5586,66.789 -104.3145,104.77564 -174.32865,122.22037
      c-79.06806,21.66846 -162.036,24.65395 -243.44605,18.96202
      c 35.18263,-26.17693 69.15674,-56.29147 87.64664,-96.99376
      c 18.54283,-35.10728 32.34906,-73.59161 33.82937,-113.52968
      c 3.52455,-34.58272 41.78564,-44.74443 65.2628,-63.29797
      C 988.32503,640.7267 1077.6447,608.99679 1139,662 z "/>

    <!--胴体-->
    <path transform="translate(476.75781,235.67578)" mask="url(#eye-tooth)" d="
      m 17.242187,61.324219
      c 36.500916,14.859744 51.744662,57.380791 87.561703,71.327831
      c 95.70723,36.75209 194.48225,91.61773 239.76993,188.51772
      c 54.48052,107.2371 45.03401,248.8221 -35.97323,340.43055
      c -63.90015,73.39067 -169.82405,102.16202 -263.159873,78.31508
      c -26.916238,15.88427 -65.636681,8.50014 -98.295598,10.31395
      c -34.885077,-5.1065 -74.396499,8.74326 -106.001809,-8.695
      c -33.88944,-39.09106 31.63854,-72.82097 66.350169,-61.90963
      c 18.768966,-3.81738 -29.676239,-21.68225 -34.940959,-35.12658
      c -40.77147,-41.51555 -44.41416,-106.26259 -27.31034,-159.17459
      c 30.48874,1.46434 78.070106,16.85983 99.9975,-7.12242
      c -30.742241,-2.85755 -66.41296,8.20467 -97.68796,-5.77308
      c -29.6593,-6.46391 -67.28608,7.73736 -93.47714,-16.19511
      c -35.37237,-35.78614 30.60573,-35.47907 40.72256,-45.29505
      c -18.57054,-13.40913 -63.07316,24.28446 -49.91731,-18.84097
      c 15.69529,-24.67376 54.19273,-39.37226 79.14161,-20.21839
      c 22.20886,9.5374 75.30428,-5.91937 69.04399,-31.33773
      c -29.28018,11.92731 -72.92349,30.79334 -89.59414,-11.16745
      c -21.32749,-22.5878 -57.08162,-26.9204 -86.14581,-19.18918
      c -46.52475,6.98653 -49.70679,-53.79967 -58.37239,-86.05742
      c -4.7895,-17.82895 50.72945,-38.60296 28.62008,-73.62555
      c -15.021,-32.02147 35.5203,-60.346515 57.77679,-80.14376
      c 52.9691,-35.110155 118.32276,-54.170328 181.892218,-46.034051
      c 12.273917,-39.771297 73.9228008,-42.626248 90.909687,-5.209521
      c 5.365753,13.684595 0.189086,28.275112 -0.909678,42.210351 z"/>
  </g>
</svg>
